<svg width="1000" height="1000" viewBox="0 0 1000 1000" fill="none" xmlns="http://www.w3.org/2000/svg">
<ellipse cx="421.5" cy="56" rx="421.5" ry="56" transform="matrix(-1 0 0 1 921 809)" fill="#CABAD0"/>
<path d="M890 261C883.05 213.543 842.202 189.683 775 152C758.261 144.724 744.508 139.37 731.5 135.402C716.877 113.096 709.951 99.8138 685.5 83.5C671.771 96.507 664.149 103.882 658 125.148C645.452 100.582 634.486 89.4042 602 78C589.174 103.515 589.803 120.6 600.564 154.5C565.702 150.715 545.67 148.118 533.5 166.5C530.29 192.995 538.846 209.308 569.004 240.5C528.316 258.877 514.813 268.668 513 286C513.381 299.155 519.12 309.568 559.126 344.5C525.971 355.022 508.702 361.842 496.5 387C493.089 394.922 498.07 404.716 544.062 451C495.754 449.911 476.491 453.284 471 474C467.075 484.442 471.121 497.428 507.155 553.5L506.933 553.48C461.128 549.374 435.379 547.066 415.5 563C405.406 583.15 412.533 604.288 433.699 648.5C397.316 634.751 378.07 629.086 357 642.5C349.452 657.482 348.294 669.317 378.508 726.5C349.973 718.132 334.359 714.779 309 717.5C300.701 722.71 295.84 723.498 295 805.209C277.173 785.998 267.577 774.326 240.5 776C228.766 780.206 222.024 781.29 214.5 818.426C200.613 804.091 192.37 798.059 175 799C168.09 802.633 166.618 808.339 171.838 830.5C169.857 831.307 167.912 832.14 166 833C161.94 842.877 161.49 847.728 175 851C286.372 873.904 357.057 877.028 490 874.5C518.313 868.28 536.606 853.744 551.5 839C553.14 837.259 554.921 835.624 556.819 834.083C557.481 860.571 560.652 880.759 572 895C636.532 905.488 668.304 908.183 698 893.5C698.45 892.307 698.881 891.141 699.292 890C705.893 888.978 728.355 884.397 731.5 881C736.68 839.118 724.322 846.57 712 836C714.38 816.715 705.703 795.508 699.292 776.766C716.818 764.338 718.377 756.609 733.5 733C742.805 687.426 748.797 648.642 751.52 610.5C752.126 602.02 752.57 593.572 752.852 585.088C754.893 587.959 766.736 591.313 773.5 588.07C783.258 587.42 783.316 578.489 782 562.84C792.323 558.942 800.35 552.691 813.5 541.148C826.107 523.721 844.173 516.897 850 481.148C845.747 470.797 840.889 467.289 829.5 463.648C809.542 461.403 799.267 474.646 775.737 493.022C770.188 476.812 762.253 462.196 744.16 439.5C742.766 428.749 741.213 417.605 739.5 406C744 372.5 762.785 357.705 810 348C845.563 341.292 858.743 333.04 876.5 314.5C889.079 292.156 892.036 280.442 890 261Z" fill="#A77CEF"/>
<path d="M633 693.5C660.265 736.404 671.966 772.102 666 832L680.5 835.5C703.036 839.237 712.757 857.051 698.5 891C662.604 902.206 634.746 901.712 567 885L571.5 895C662.668 907.325 685.261 904.707 698.5 891L730.5 880C734.072 850.731 731.631 845.183 713 835.5C712.277 817.049 705.825 797.679 700 779L676.989 789.5C680.463 808.387 681.35 818.511 680.5 835.5C676.548 755.764 667.202 718.708 633 693.5Z" fill="black" fill-opacity="0.15"/>
<path d="M510 867.5C380.605 864.298 306.622 875.303 166 833.5C163.081 841.282 162.803 844.386 166 846.5C238.879 870.187 316.045 875.031 491 875L510 867.5Z" fill="black" fill-opacity="0.15"/>
<path d="M696 496C692.946 492.904 688.336 495.009 685.5 498C711.901 528.489 737.725 551.24 753.578 561.383C753.475 568.596 753.284 576.26 753 584.5C763.897 589.864 769.329 590.132 778 586.5C778.162 578.674 778.198 571.364 778.104 564.5L768 567C762.832 563.476 758.242 560.156 753.635 556.433C739.865 545.306 725.945 530.575 696 496Z" fill="black" fill-opacity="0.15"/>
<path d="M775 501C770.818 500.638 769.733 499.67 771 496C806.289 467.736 822.737 457.154 834.5 466C814.847 466.086 801.045 477.468 775 501Z" fill="black" fill-opacity="0.15"/>
<path d="M768.522 492C763.101 474.792 755.32 459.849 745 442.5C746.007 449.711 746.933 456.492 747.775 463L768.522 492Z" fill="black" fill-opacity="0.15"/>
<path d="M347 778C345.778 781.582 346.722 782.319 350.5 782C400.376 708.985 444.356 640.804 499 586.5C544.941 498.908 556.866 451.157 563 386C568.327 318.597 568.246 258.967 582.5 210.5C596.676 147.381 629 141.5 669 124C691.996 126.592 705.129 128.427 730 134L725.5 126.5C716.5 126.5 677.043 123.653 661 115.5L658 124C650.215 126.369 633.265 122.781 613.044 141C611.066 142.783 609.056 144.774 607.02 147C593.748 120.335 597.337 105.301 602 78.5C592.245 97.4389 587.163 108.517 600.5 154.858C594.618 162.621 588.576 172.473 582.5 185C577.054 197.693 573.409 211.986 570.715 228C545.65 213.417 539.646 197.881 533.5 166C531.82 189.602 533.351 203.745 568.771 241C565.207 267.785 563.462 298.958 560.166 335C536.078 320.37 526.42 308.863 512.5 285.5C512.76 298.177 517.359 308.002 559.124 346C556.347 374.236 552.47 405.332 546 439.5C520.371 421.523 511.082 410.24 495 390C496.799 399.518 495.645 403.083 543.693 450.5C535.732 486.485 524.863 516.678 511.192 544.5C487.974 514.768 480.146 501.205 469.5 479C471.348 493.137 474.513 503.58 506.631 553.5C501.746 562.855 496.534 571.976 491 581C472.966 600.537 456.105 619.974 440.313 639.5C418.827 607.434 415.711 591.293 415 563.5C408.757 583.172 408.231 597.382 432.326 649.5C415.032 671.424 399.058 693.502 384.254 716C359.452 685.683 357.355 670.031 357 642.5C350.526 656.66 344.792 661.812 377 727.206C366.4 743.851 356.42 760.747 347 778Z" fill="black" fill-opacity="0.15"/>
<path d="M294 804.5C295.741 754.104 296.19 723.613 308.5 718C301.582 751.524 296.332 770.443 303.5 802L294 804.5Z" fill="black" fill-opacity="0.15"/>
<path d="M249 812C221.601 815.013 219.657 810.973 227.5 785.5C219.245 794.838 216.869 802.725 214.5 819L249 812Z" fill="black" fill-opacity="0.15"/>
<path d="M182.5 826.5C176.448 825.961 173.442 824.666 169 820L173 830.5L182.5 826.5Z" fill="black" fill-opacity="0.15"/>
<path d="M676 790C673.741 767.65 671.513 756.541 666 739C705.31 679.487 720.626 622.961 729.327 542.5L753.022 560.5C752.919 608.794 747.568 661.274 733.5 732C715.127 766.871 701.719 777.121 676 790Z" fill="#F3DE6C"/>
<path d="M759.5 365.5C770.832 348.851 798.512 337.246 876.5 313.5C864.858 326.385 856.876 333.286 831 343C776.838 353.593 777.424 356.018 759.5 365.5Z" fill="#F3DE6C"/>
<path d="M739.5 402C742.279 423.535 744.83 443.428 746.948 462.5L736.625 450.5C737.578 435.147 738.516 419.013 739.5 402Z" fill="#F3DE6C"/>
<path d="M557 788C556.785 805.598 556.488 820.819 556.819 834.083M634 693C658.179 716.007 670.489 738.496 676.781 790.397M680.5 836C679.583 818.586 678.375 803.548 676.781 790.397M680.5 836L659 830.5M680.5 836C705.467 844.007 712.117 854.369 699.292 890M676.781 790.397C680.455 788.706 683.916 786.912 687.194 785C691.524 782.474 695.534 779.742 699.292 776.766M556.819 834.083C557.481 860.571 560.652 880.759 572 895C636.532 905.488 668.304 908.183 698 893.5C698.45 892.307 698.881 891.141 699.292 890M556.819 834.083C554.921 835.624 553.14 837.259 551.5 839C536.606 853.744 518.313 868.28 490 874.5C357.057 877.028 286.372 873.904 175 851C161.49 847.728 161.94 842.877 166 833C167.912 832.14 169.857 831.307 171.838 830.5M699.292 890C715.843 889.258 721.671 886.385 731 880.5C737.227 852.24 730.993 844.15 712 836C711.605 807.015 706.943 796.454 699.292 776.766M708.5 424C723.298 436.855 734.938 447.345 746.905 462.001M685.5 498.5C710.136 529.954 728.127 541.289 753.224 561.023M731.5 135.402C744.508 139.37 758.261 144.724 775 152C842.202 189.683 883.05 213.543 890 261C892.036 280.442 889.079 292.156 876.5 314.5C858.743 333.04 845.563 341.292 810 348C762.785 357.705 744 372.5 739.5 406C741.213 417.605 742.766 428.749 744.16 439.5M731.5 135.402C711.6 129.332 693.443 126.505 669 125C665.13 124.952 661.471 124.996 658 125.148M731.5 135.402C716.877 113.096 709.951 99.8138 685.5 83.5C671.771 96.507 664.149 103.882 658 125.148M658 125.148C645.452 100.582 634.486 89.4042 602 78C589.174 103.515 589.803 120.6 600.564 154.5M658 125.148C630.941 126.328 615.306 133.991 600.564 154.5M600.564 154.5C597.04 159.403 593.566 165.041 590 171.5C580.875 181.974 574.09 206.924 569.004 240.5M600.564 154.5C565.702 150.715 545.67 148.118 533.5 166.5C530.29 192.995 538.846 209.308 569.004 240.5M569.004 240.5C528.316 258.877 514.813 268.668 513 286C513.381 299.155 519.12 309.568 559.126 344.5M569.004 240.5C564.555 269.871 561.405 305.843 559.126 344.5M559.126 344.5C558.526 354.671 557.987 365.028 557.5 375.5C553.71 403.318 549.372 428.161 544.062 451M559.126 344.5C525.971 355.022 508.702 361.842 496.5 387C493.089 394.922 498.07 404.716 544.062 451M544.062 451C495.754 449.911 476.491 453.284 471 474C467.075 484.442 471.121 497.428 507.155 553.5M544.062 451C535.161 489.277 523.528 521.923 507.155 553.5M507.155 553.5C501.939 563.559 496.243 573.51 490 583.5C467.509 607.877 449.399 628.822 433.699 648.5M507.155 553.5C461.212 549.381 435.411 547.04 415.5 563C405.406 583.15 412.533 604.288 433.699 648.5M433.699 648.5C397.316 634.751 378.07 629.086 357 642.5C349.452 657.482 348.294 669.317 378.508 726.5M433.699 648.5C412.53 675.033 395.744 699.264 378.508 726.5M378.508 726.5C368.327 742.587 357.99 759.722 346.5 779C333.362 789.896 316.979 798.081 295 805.209M378.508 726.5C349.973 718.132 334.359 714.779 309 717.5C300.701 722.71 295.84 723.498 295 805.209M295 805.209C286.955 807.818 278.16 810.286 268.5 812.693C247.638 813.693 229.942 815.604 214.5 818.426M295 805.209C277.173 785.998 267.577 774.326 240.5 776C228.766 780.206 222.024 781.29 214.5 818.426M214.5 818.426C200.613 804.091 192.37 798.059 175 799C168.09 802.633 166.618 808.339 171.838 830.5M214.5 818.426C198.1 821.423 184.243 825.447 171.838 830.5M744.16 439.5C762.253 462.196 770.188 476.812 775.737 493.022M744.16 439.5C745.157 447.193 746.072 454.685 746.905 462.001M775.737 493.022C774.215 494.21 772.638 495.42 771 496.648C762.241 482.302 754.507 471.311 746.905 462.001M775.737 493.022C799.267 474.646 809.542 461.403 829.5 463.648C840.889 467.289 845.747 470.797 850 481.148C844.173 516.897 826.107 523.721 813.5 541.148C800.35 552.691 792.323 558.942 782 562.84M782 562.84C778.658 564.102 775.075 565.118 771 565.987C768.111 566.603 764.974 567.145 761.5 567.648C758.65 565.322 755.896 563.125 753.224 561.023M782 562.84C783.316 578.489 783.258 587.42 773.5 588.07C765.401 591.953 750.022 586.379 752.904 583.5M752.904 583.5C752.624 592.518 752.164 601.491 751.52 610.5C748.797 648.642 742.805 687.426 733.5 733C723.235 751.977 712.919 765.974 699.292 776.766M752.904 583.5C753.134 576.054 753.241 568.577 753.224 561.023" stroke="black" stroke-width="4" stroke-linecap="round" stroke-linejoin="round"/>
<ellipse cx="10" cy="12" rx="10" ry="12" transform="matrix(-1 0 0 1 773 221)" fill="black"/>
<path d="M814.5 286C819 297.5 832.5 297.5 836 286" stroke="black" stroke-width="4" stroke-linecap="round"/>
<path d="M836.5 441.5C841.638 426.903 845.469 426.348 854 439L844 471.572C829.138 460.503 820.307 460.945 803.818 471.572L797 435C806.901 430.131 810.719 432.252 814.5 444.5C823.354 434.411 828.193 432.993 836.5 441.5Z" fill="#FBCEB7"/>
<path d="M819 553L816.203 538L827.443 525.5L819 553Z" fill="#FBCEB7"/>
<path d="M797.5 436C787.385 412.635 778.133 398.425 792 382.5C803.164 401.38 807.288 397.659 813 380C828.642 415.48 832.867 411.371 835 375.5C845.889 395.659 849.762 395.983 853 378.5C861.522 392.233 864.693 400.543 855.5 421C863.803 434.528 864.218 439.143 853 439C843.538 422.222 841.231 430.253 836.5 441C826.783 432.407 822.102 434.511 814.5 445C808.857 428.776 804.957 429.075 797.5 436Z" fill="#F29B87"/>
<path d="M902 474.5C894.567 467.187 890.251 456.803 882.5 436C899.038 450.163 904.571 457.064 909.5 468C907.807 472.377 905.882 473.379 902 474.5Z" fill="#F29B87"/>
<path d="M824 322C794.033 323.433 787.845 337.872 791.5 382.5C803.722 400.502 808.446 399.934 813 379.5C827.193 414.151 832.126 414.132 835 376C844.366 394.645 848.657 397.347 853.5 379.5C861.132 333.61 851.278 325.174 824 322Z" fill="#FFC5DE"/>
<path d="M791.5 383C780.911 398.417 783.906 410.521 798 435.5L804.318 471L811.211 470C795.988 382.472 798.582 336.187 821.5 322C811.357 323.562 803.316 324.898 798 331.325C790.245 334.77 790.785 340.964 786 349C775.464 350.749 755.185 365.354 753 371.5C766.201 361.386 773.799 356.077 791.103 353.5C790.489 361.132 790.599 370.77 791.5 383Z" fill="black" fill-opacity="0.15"/>
<path d="M824.5 537L819 553.5L816.064 537L822.881 529.5C823.411 531.976 823.951 534.476 824.5 537Z" fill="black" fill-opacity="0.15"/>
<path d="M905 473.5C891.826 459.316 891.857 452.292 887.5 439.5C884.269 442.072 885.945 452.615 899.5 474L905 473.5Z" fill="black" fill-opacity="0.15"/>
<path d="M797.558 435.913C785.947 412.335 779.276 399.073 791.212 381.771M797.558 435.913C807.343 427.948 810.323 433.167 814.815 445.662C822.724 433.692 827.518 432.556 836.812 442.025C841.897 425.937 845.615 426.506 853.309 439.297M797.558 435.913L804 470.5C824.427 459.713 831.84 462.694 843.5 471.5L853.309 439.297M791.212 381.771C786.516 352.398 793.12 322.353 819.13 321.963C851.643 321.475 863.234 339.006 853.175 378.043C861.073 393.473 864.029 402.415 854.671 421.254C863.427 434.182 865.484 439.624 853.309 439.297M791.212 381.771C803.711 401.533 807.979 398.384 812.786 378.204C830.189 418.999 832.89 409.333 833.936 374.706C846.365 398.277 849.531 395.431 852.399 378.606M819.13 556L816 538.5L829 524.5L819.13 556ZM880.525 433.058C891.003 458.305 897.615 478.962 904.651 473.83C918.274 466.452 897.761 451.877 880.525 433.058Z" stroke="black" stroke-width="4" stroke-linecap="round" stroke-linejoin="round"/>
<circle cx="12" cy="12" r="12" transform="matrix(-1 0 0 1 594 430)" fill="black" fill-opacity="0.34"/>
<ellipse cx="6.5" cy="7.5" rx="6.5" ry="7.5" transform="matrix(-1 0 0 1 570 450)" fill="black" fill-opacity="0.34"/>
<circle cx="9.5" cy="9.5" r="9.5" transform="matrix(-1 0 0 1 592 460)" fill="black" fill-opacity="0.34"/>
<circle cx="12" cy="12" r="12" transform="matrix(0.386022 0.922489 0.922489 -0.386022 469.758 616.891)" fill="black" fill-opacity="0.34"/>
<ellipse cx="6.5" cy="7.5" rx="6.5" ry="7.5" transform="matrix(0.386022 0.922489 0.922489 -0.386022 497.472 631.311)" fill="black" fill-opacity="0.34"/>
<circle cx="9.5" cy="9.5" r="9.5" transform="matrix(0.386022 0.922489 0.922489 -0.386022 498.204 607.156)" fill="black" fill-opacity="0.34"/>
<ellipse cx="439.168" cy="688.703" rx="12.266" ry="12" transform="rotate(-25.0875 439.168 688.703)" fill="black" fill-opacity="0.34"/>
<ellipse cx="462.867" cy="694.723" rx="6.64411" ry="7.5" transform="rotate(-25.0875 462.867 694.723)" fill="black" fill-opacity="0.34"/>
<ellipse cx="450.366" cy="713.825" rx="9.71062" ry="9.5" transform="rotate(-25.0875 450.366 713.825)" fill="black" fill-opacity="0.34"/>
<ellipse cx="15.3631" cy="14.8422" rx="15.3631" ry="14.8422" transform="matrix(-0.0300122 0.99955 0.99955 0.0300122 451.422 643)" fill="black" fill-opacity="0.34"/>
<ellipse cx="8.3217" cy="9.27638" rx="8.3217" ry="9.27638" transform="matrix(-0.0300122 0.99955 0.99955 0.0300122 475.225 674.455)" fill="black" fill-opacity="0.34"/>
<ellipse cx="12.1625" cy="11.7501" rx="12.1625" ry="11.7501" transform="matrix(-0.0300122 0.99955 0.99955 0.0300122 488.434 646.673)" fill="black" fill-opacity="0.34"/>
</svg>
